<mxfile host="app.diagrams.net" agent="Mozilla/5.0 (Windows NT 10.0; Win64; x64) AppleWebKit/537.36 (KHTML, like Gecko) Chrome/135.0.0.0 Safari/537.36" version="26.2.14">
  <diagram name="Página-1" id="8pD2QXoLMt7h7blkq-T-">
    <mxGraphModel grid="1" page="1" gridSize="10" guides="1" tooltips="1" connect="1" arrows="1" fold="1" pageScale="1" pageWidth="827" pageHeight="1169" math="0" shadow="0">
      <root>
        <mxCell id="0" />
        <mxCell id="1" parent="0" />
        <mxCell id="CYIbk_TehzGCqSz1o0p9-49" value="" style="edgeStyle=orthogonalEdgeStyle;rounded=0;orthogonalLoop=1;jettySize=auto;html=1;" edge="1" parent="1" target="CYIbk_TehzGCqSz1o0p9-52">
          <mxGeometry relative="1" as="geometry">
            <mxPoint x="473.08" y="810" as="sourcePoint" />
            <mxPoint x="473.08" y="870" as="targetPoint" />
          </mxGeometry>
        </mxCell>
        <mxCell id="CYIbk_TehzGCqSz1o0p9-34" value="" style="endArrow=none;html=1;rounded=0;entryX=1;entryY=0.5;entryDx=0;entryDy=0;entryPerimeter=0;exitX=0.126;exitY=0.026;exitDx=0;exitDy=0;exitPerimeter=0;" edge="1" parent="1" source="CYIbk_TehzGCqSz1o0p9-52" target="CYIbk_TehzGCqSz1o0p9-16">
          <mxGeometry width="50" height="50" relative="1" as="geometry">
            <mxPoint x="440" y="640" as="sourcePoint" />
            <mxPoint x="380" y="450" as="targetPoint" />
          </mxGeometry>
        </mxCell>
        <mxCell id="CYIbk_TehzGCqSz1o0p9-16" value="" style="line;strokeWidth=2;html=1;" vertex="1" parent="1">
          <mxGeometry x="120" y="400" width="320" height="10" as="geometry" />
        </mxCell>
        <mxCell id="CYIbk_TehzGCqSz1o0p9-5" value="" style="rounded=1;whiteSpace=wrap;html=1;fillColor=#dae8fc;gradientColor=#7ea6e0;strokeColor=#6c8ebf;" vertex="1" parent="1">
          <mxGeometry x="50" y="315" width="80" height="60" as="geometry" />
        </mxCell>
        <mxCell id="CYIbk_TehzGCqSz1o0p9-1" value="" style="shape=actor;whiteSpace=wrap;html=1;" vertex="1" parent="1">
          <mxGeometry x="70" y="320" width="40" height="50" as="geometry" />
        </mxCell>
        <mxCell id="CYIbk_TehzGCqSz1o0p9-7" value="Front end" style="text;html=1;align=center;verticalAlign=middle;whiteSpace=wrap;rounded=0;fillColor=#f8cecc;gradientColor=#ea6b66;strokeColor=#b85450;" vertex="1" parent="1">
          <mxGeometry x="255" y="390" width="60" height="30" as="geometry" />
        </mxCell>
        <mxCell id="CYIbk_TehzGCqSz1o0p9-9" value="Entregar curriculum" style="rounded=1;whiteSpace=wrap;html=1;fillColor=#f8cecc;gradientColor=#ea6b66;strokeColor=#b85450;" vertex="1" parent="1">
          <mxGeometry x="240" y="310" width="90" height="70" as="geometry" />
        </mxCell>
        <mxCell id="CYIbk_TehzGCqSz1o0p9-8" value="" style="endArrow=open;endFill=1;endSize=12;html=1;rounded=0;" edge="1" parent="1">
          <mxGeometry width="160" relative="1" as="geometry">
            <mxPoint x="130" y="344.5" as="sourcePoint" />
            <mxPoint x="240" y="345" as="targetPoint" />
          </mxGeometry>
        </mxCell>
        <mxCell id="CYIbk_TehzGCqSz1o0p9-11" value="Usuario" style="text;html=1;align=center;verticalAlign=middle;whiteSpace=wrap;rounded=0;fillColor=#dae8fc;gradientColor=#7ea6e0;strokeColor=#6c8ebf;" vertex="1" parent="1">
          <mxGeometry x="60" y="390" width="60" height="30" as="geometry" />
        </mxCell>
        <mxCell id="CYIbk_TehzGCqSz1o0p9-12" value="Back end" style="rounded=1;whiteSpace=wrap;html=1;fillColor=#f8cecc;gradientColor=#ea6b66;strokeColor=#b85450;" vertex="1" parent="1">
          <mxGeometry x="429" y="315" width="90" height="70" as="geometry" />
        </mxCell>
        <mxCell id="CYIbk_TehzGCqSz1o0p9-13" value="" style="endArrow=open;endFill=1;endSize=12;html=1;rounded=0;entryX=0;entryY=0.5;entryDx=0;entryDy=0;fillColor=#f8cecc;gradientColor=#ea6b66;strokeColor=#b85450;" edge="1" parent="1" target="CYIbk_TehzGCqSz1o0p9-12">
          <mxGeometry width="160" relative="1" as="geometry">
            <mxPoint x="330" y="350" as="sourcePoint" />
            <mxPoint x="410" y="351" as="targetPoint" />
          </mxGeometry>
        </mxCell>
        <mxCell id="CYIbk_TehzGCqSz1o0p9-18" value="Formatea curriculum entregado" style="rounded=1;whiteSpace=wrap;html=1;fillColor=#f8cecc;gradientColor=#ea6b66;strokeColor=#b85450;" vertex="1" parent="1">
          <mxGeometry x="430.5" y="150" width="90" height="70" as="geometry" />
        </mxCell>
        <mxCell id="CYIbk_TehzGCqSz1o0p9-19" value="" style="endArrow=classic;html=1;rounded=0;entryX=0.5;entryY=1;entryDx=0;entryDy=0;fillColor=#f8cecc;gradientColor=#ea6b66;strokeColor=#b85450;" edge="1" parent="1" source="CYIbk_TehzGCqSz1o0p9-12" target="CYIbk_TehzGCqSz1o0p9-18">
          <mxGeometry width="50" height="50" relative="1" as="geometry">
            <mxPoint x="476" y="310" as="sourcePoint" />
            <mxPoint x="590" y="240" as="targetPoint" />
          </mxGeometry>
        </mxCell>
        <mxCell id="CYIbk_TehzGCqSz1o0p9-20" value="" style="endArrow=open;endFill=1;endSize=12;html=1;rounded=0;exitX=0.5;exitY=1;exitDx=0;exitDy=0;fillColor=#f8cecc;gradientColor=#ea6b66;strokeColor=#b85450;" edge="1" parent="1" source="CYIbk_TehzGCqSz1o0p9-12">
          <mxGeometry width="160" relative="1" as="geometry">
            <mxPoint x="480" y="440" as="sourcePoint" />
            <mxPoint x="474" y="470" as="targetPoint" />
          </mxGeometry>
        </mxCell>
        <mxCell id="CYIbk_TehzGCqSz1o0p9-21" value="Entrega curriculum formateado" style="rounded=1;whiteSpace=wrap;html=1;fillColor=#f8cecc;gradientColor=#ea6b66;strokeColor=#b85450;" vertex="1" parent="1">
          <mxGeometry x="430.5" y="470" width="90" height="70" as="geometry" />
        </mxCell>
        <mxCell id="CYIbk_TehzGCqSz1o0p9-47" value="" style="edgeStyle=orthogonalEdgeStyle;rounded=0;orthogonalLoop=1;jettySize=auto;html=1;" edge="1" parent="1" source="CYIbk_TehzGCqSz1o0p9-35">
          <mxGeometry relative="1" as="geometry">
            <mxPoint x="474" y="750" as="targetPoint" />
          </mxGeometry>
        </mxCell>
        <mxCell id="CYIbk_TehzGCqSz1o0p9-56" value="" style="edgeStyle=orthogonalEdgeStyle;rounded=0;orthogonalLoop=1;jettySize=auto;html=1;entryX=0.222;entryY=0.571;entryDx=0;entryDy=0;entryPerimeter=0;" edge="1" parent="1" source="CYIbk_TehzGCqSz1o0p9-35" target="CYIbk_TehzGCqSz1o0p9-54">
          <mxGeometry relative="1" as="geometry">
            <mxPoint x="595" y="660" as="targetPoint" />
          </mxGeometry>
        </mxCell>
        <mxCell id="CYIbk_TehzGCqSz1o0p9-35" value="Menú de seleccion de curriculum" style="rounded=1;whiteSpace=wrap;html=1;fillColor=#f8cecc;gradientColor=#ea6b66;strokeColor=#b85450;" vertex="1" parent="1">
          <mxGeometry x="433.5" y="630" width="81" height="60" as="geometry" />
        </mxCell>
        <mxCell id="CYIbk_TehzGCqSz1o0p9-36" value="" style="endArrow=open;endFill=1;endSize=12;html=1;rounded=0;exitX=0.5;exitY=1;exitDx=0;exitDy=0;entryX=0.5;entryY=0;entryDx=0;entryDy=0;fillColor=#f8cecc;gradientColor=#ea6b66;strokeColor=#b85450;" edge="1" parent="1" target="CYIbk_TehzGCqSz1o0p9-35">
          <mxGeometry width="160" relative="1" as="geometry">
            <mxPoint x="473.41" y="540" as="sourcePoint" />
            <mxPoint x="473.41" y="625" as="targetPoint" />
          </mxGeometry>
        </mxCell>
        <mxCell id="CYIbk_TehzGCqSz1o0p9-43" value="" style="rounded=1;whiteSpace=wrap;html=1;fillColor=#dae8fc;gradientColor=#7ea6e0;strokeColor=#6c8ebf;" vertex="1" parent="1">
          <mxGeometry x="434" y="750" width="80" height="60" as="geometry" />
        </mxCell>
        <mxCell id="CYIbk_TehzGCqSz1o0p9-44" value="" style="shape=actor;whiteSpace=wrap;html=1;" vertex="1" parent="1">
          <mxGeometry x="454" y="750" width="40" height="50" as="geometry" />
        </mxCell>
        <mxCell id="CYIbk_TehzGCqSz1o0p9-45" value="Usuario" style="text;html=1;align=center;verticalAlign=middle;whiteSpace=wrap;rounded=0;fillColor=#dae8fc;gradientColor=#7ea6e0;strokeColor=#6c8ebf;" vertex="1" parent="1">
          <mxGeometry x="444" y="815" width="60" height="30" as="geometry" />
        </mxCell>
        <mxCell id="CYIbk_TehzGCqSz1o0p9-48" value="Selecciona curriculum" style="rounded=1;whiteSpace=wrap;html=1;fillColor=#dae8fc;gradientColor=#7ea6e0;strokeColor=#6c8ebf;" vertex="1" parent="1">
          <mxGeometry x="433" y="890" width="81" height="60" as="geometry" />
        </mxCell>
        <mxCell id="CYIbk_TehzGCqSz1o0p9-51" value="Front end" style="text;html=1;align=center;verticalAlign=middle;whiteSpace=wrap;rounded=0;fillColor=#f8cecc;gradientColor=#ea6b66;strokeColor=#b85450;" vertex="1" parent="1">
          <mxGeometry x="444" y="1060" width="60" height="30" as="geometry" />
        </mxCell>
        <mxCell id="CYIbk_TehzGCqSz1o0p9-52" value="Entregar curriculum" style="rounded=1;whiteSpace=wrap;html=1;fillColor=#f8cecc;gradientColor=#ea6b66;strokeColor=#b85450;" vertex="1" parent="1">
          <mxGeometry x="429" y="980" width="90" height="70" as="geometry" />
        </mxCell>
        <mxCell id="CYIbk_TehzGCqSz1o0p9-53" value="Front end" style="text;html=1;align=center;verticalAlign=middle;whiteSpace=wrap;rounded=0;fillColor=#dae8fc;gradientColor=#7ea6e0;strokeColor=#6c8ebf;" vertex="1" parent="1">
          <mxGeometry x="655" y="700" width="60" height="30" as="geometry" />
        </mxCell>
        <mxCell id="CYIbk_TehzGCqSz1o0p9-54" value="Muestra ejemplos de curriculums" style="rounded=1;whiteSpace=wrap;html=1;fillColor=#dae8fc;gradientColor=#7ea6e0;strokeColor=#6c8ebf;" vertex="1" parent="1">
          <mxGeometry x="640" y="620" width="90" height="70" as="geometry" />
        </mxCell>
      </root>
    </mxGraphModel>
  </diagram>
</mxfile>
